<svg id="Layer_1" data-name="Layer 1" xmlns="http://www.w3.org/2000/svg" viewBox="0 0 792 792"><defs><style>.cls-1{fill:none;}.cls-2{fill:#543a45;}.cls-3{font-size:77.43px;font-family:Perpetua Titling MT;}</style></defs><title>logo</title><polygon class="cls-1" points="212.97 418.45 212.99 418.43 212.96 418.45 212.97 418.45"/><path class="cls-1" d="M213,418.43l0,0h0Z"/><path class="cls-1" d="M212.65,418.72v0.1l0-.06v-0.08Z"/><polygon class="cls-1" points="212.96 418.41 212.99 418.43 212.97 418.41 212.96 418.41"/><path class="cls-1" d="M212.7,418.1l0-.06v0.1l0,0V418.1Z"/><path class="cls-1" d="M213,418.46l0,0,0,0h0Z"/><path class="cls-2" d="M212.65,418l0,0.06c0.28-3.94,3.44-42.56,20.81-59.93a32.06,32.06,0,0,1,6.4-5C235,333.83,213,328.57,213,328.57s-22.28,5.32-27,25a32.3,32.3,0,0,1,5.85,4.65C209.13,375.46,212.34,413.81,212.65,418Z"/><path class="cls-2" d="M213,418.41l0,0,0,0h0Z"/><path class="cls-2" d="M213,418.46l0,0,0,0h0Z"/><path class="cls-2" d="M212.7,418.76l0,0.06c-0.31,4.23-3.52,42.59-20.8,59.87a32.3,32.3,0,0,1-5.85,4.65c4.72,19.63,27,25,27,25s22-5.26,26.91-24.63a32.06,32.06,0,0,1-6.4-5C216.14,461.33,213,422.7,212.7,418.76Z"/><path class="cls-2" d="M212.65,418.14l0,0.29,0-.26Z"/><path class="cls-2" d="M212.67,418.43s-42-2.52-60.26-20.83a32.19,32.19,0,0,1-4.78-6.06c-19.28,4.94-24.52,26.89-24.52,26.89s5.24,21.95,24.52,26.89a32.19,32.19,0,0,1,4.78-6.06C170.72,421,212.67,418.43,212.67,418.43Z"/><path class="cls-2" d="M212.67,418.43l0,0.29,0,0Z"/><path class="cls-2" d="M212.67,418.43l0.29,0,0,0,0,0Z"/><path class="cls-2" d="M302.85,418.43s-5.34-22.36-25.06-27a32.14,32.14,0,0,1-4.86,6.19C255.58,415,217,418.13,213,418.41l0,0,0,0c4,0.28,42.57,3.45,59.92,20.81a32.14,32.14,0,0,1,4.86,6.19C297.51,440.79,302.85,418.43,302.85,418.43Z"/><path class="cls-2" d="M212.65,418.82v-0.1c-3.38,2.92-32.65,27.59-57,27.59a32.07,32.07,0,0,1-8-1c-10.47,17.2,1.49,36.66,1.49,36.66S168.74,494,186,483.34a32.23,32.23,0,0,1-.89-7.57C185.1,451.55,209.5,422.48,212.65,418.82Z"/><path class="cls-2" d="M213,418.41h0l-0.27-.31v0.08Z"/><path class="cls-2" d="M213,418.41h0c0.55-.49,31.65-27.86,57.31-27.86a32.28,32.28,0,0,1,7.47.86c10.32-17.17-1.57-36.52-1.57-36.52s-19.2-11.8-36.32-1.69a32.11,32.11,0,0,1,1,7.9C240.87,386.78,213.43,417.93,213,418.41Z"/><path class="cls-2" d="M212.69,418.18l0,0.26,0.29,0Z"/><path class="cls-2" d="M212.65,418.14V418c-3.15-3.65-27.54-32.73-27.54-56.95a32.23,32.23,0,0,1,.89-7.57c-17.25-10.68-36.86,1.37-36.86,1.37s-12,19.46-1.49,36.66a32.07,32.07,0,0,1,8-1C180,390.55,209.28,415.22,212.65,418.14Z"/><path class="cls-2" d="M213,418.46h0c0.42,0.48,27.86,31.63,27.86,57.31a32.11,32.11,0,0,1-1,7.9C257,493.78,276.22,482,276.22,482s11.89-19.36,1.57-36.52a32.28,32.28,0,0,1-7.47.86C244.66,446.31,213.56,418.94,213,418.46Z"/><path class="cls-2" d="M212.69,418.69v0.08l0.27-.31h0Z"/><path class="cls-2" d="M213,418.45l-0.29,0,0,0.26Z"/><text class="cls-3" transform="translate(309.18 451.16)">PÂTISSIER</text></svg>